<?xml version="1.0" encoding="utf-8"?>
<!-- Generator: Adobe Illustrator 21.0.0, SVG Export Plug-In . SVG Version: 6.00 Build 0)  -->
<svg version="1.1" id="Слой_1" xmlns="http://www.w3.org/2000/svg" xmlns:xlink="http://www.w3.org/1999/xlink" x="0px" y="0px"
	 viewBox="0 0 377.3 342.1" style="enable-background:new 0 0 377.3 342.1;" xml:space="preserve">
<path d="M340.5,176.3l19.2-2.3c9.6-1.2,16.8-9.3,16.8-18.9c0-10.5-8.5-19-19-19h-13.4c-8.2,0-15.2,5.2-17.9,12.5l-18.7-41
	c-6.9-15.2-20.8-26.6-37.2-30.3c-0.8-0.2-1.6-0.3-2.4-0.5c-0.7-18.8-7.9-36.6-20.7-50.7C232.8,10.3,213.2,1.1,192,0.1
	c-21.3-1-41.6,6.4-57.4,20.7c-15.7,14.3-24.9,33.9-25.9,55.2c0,0.2,0,0.5,0,0.7c-0.9,0.2-1.7,0.3-2.5,0.5C89.9,81,76,92.3,69,107.5
	l-18.7,41c-2.7-7.3-9.7-12.5-17.9-12.5H19c-10.5,0-19,8.5-19,19c0,9.6,7.2,17.7,16.7,18.9l19.2,2.3l-18.4,18.4
	C8.6,203.6,4.4,216.5,6.1,229l6.3,44.4c1.6,11.1,7.3,21.3,15.9,28.4v20.1c0,12,9.7,21.7,21.7,21.7h36c12,0,21.7-9.7,21.7-21.7V312
	h160.8v9.8c0,12,9.8,21.7,21.7,21.7h36c12,0,21.7-9.7,21.7-21.7v-20.1c8.6-7.1,14.3-17.2,15.9-28.4l6.3-44.4
	c1.8-12.5-2.5-25.3-11.4-34.3L340.5,176.3z M336.9,292.2c-5.1,3.5-11.1,5.4-17.3,5.4H56.9c-6.2,0-12.2-1.9-17.3-5.4
	c-6.6-4.5-11.1-11.4-12.7-19.2h322.5C348,280.7,343.4,287.7,336.9,292.2L336.9,292.2z M273.1,235.1l7.3,23.4h-10l-7.3-23.4H273.1z
	 M248,235.1l7.3,23.4H121.2l7.3-23.4H248z M106.1,258.6h-10l7.3-23.4h10L106.1,258.6z M81,258.6H24.9l-3.3-23.4h66.8L81,258.6z
	 M295.5,258.6l-7.3-23.4h66.8l-3.3,23.4H295.5z M339.5,155.1c0-2.6,2.1-4.6,4.6-4.6h13.4c2.6,0,4.6,2.1,4.6,4.6
	c0,2.3-1.8,4.3-4.1,4.6l-18.6,2.2V155.1z M319.1,167.6h-23.2l-40.7-44.7c2.3-3.6,4.4-7.4,6.1-11.3c9.3,0.7,16.6,1.5,21.2,2.3
	c5.1,1,9.9,2.6,14.4,4.9L319.1,167.6z M241.9,138.6c1.5-1.4,2.9-2.8,4.3-4.2l55.3,60.7c2.2,2.4,2.1,6.2-0.4,8.5
	c-2.4,2.2-6.2,2-8.5-0.4l-55.3-60.7C238.9,141.2,240.4,139.9,241.9,138.6L241.9,138.6z M283.8,99.6c-4.4-0.8-10.4-1.5-17.8-2
	c0.5-2.1,0.9-4.2,1.2-6.3c0,0,0,0,0,0C273.3,92.7,279,95.6,283.8,99.6L283.8,99.6z M123,76.7c0.8-17.4,8.4-33.5,21.2-45.2
	c12.1-11,27.6-17,43.9-17c1,0,2.1,0,3.1,0.1c17.4,0.8,33.5,8.4,45.2,21.2c24.2,26.6,22.3,68-4.3,92.2c-12.9,11.7-29.6,17.8-47,17
	c-17.4-0.8-33.5-8.4-45.2-21.2C128.3,110.8,122.2,94.1,123,76.7L123,76.7z M109.4,91.2C109.4,91.2,109.4,91.2,109.4,91.2
	c0.3,2.1,0.7,4.2,1.2,6.3c-7.4,0.6-13.4,1.3-17.8,2C97.5,95.6,103.2,92.7,109.4,91.2L109.4,91.2z M79.7,118.9
	c4.5-2.3,9.3-3.9,14.4-4.9c4.6-0.9,11.8-1.7,21.2-2.4c3.4,7.9,8.2,15.2,14.1,21.7c14.3,15.7,33.9,24.9,55.2,25.9
	c1.3,0.1,2.5,0.1,3.8,0.1c12.9,0,25.5-3.1,36.7-9l15.7,17.2H57.4L79.7,118.9z M14.4,155.1c0-2.6,2.1-4.6,4.6-4.6h13.4
	c2.6,0,4.6,2.1,4.6,4.6v6.8l-18.6-2.2C16.2,159.4,14.4,157.4,14.4,155.1L14.4,155.1z M50.7,182h203.2l28.1,30.9
	c4,4.4,9.5,6.7,15.1,6.7c4.9,0,9.8-1.8,13.7-5.3c8.3-7.6,8.9-20.5,1.3-28.8l-3.1-3.4h16.8l22.9,22.9c4.3,4.3,6.9,9.9,7.5,15.9H20.3
	c0.6-5.9,3.2-11.6,7.5-15.9L50.7,182z M93.5,321.7c0,4-3.3,7.3-7.3,7.3h-36c-4,0-7.3-3.3-7.3-7.3v-12.1c4.5,1.5,9.3,2.3,14.2,2.3
	h36.5V321.7z M326.4,329.1h-36c-4,0-7.3-3.3-7.3-7.3V312h36.5c4.9,0,9.6-0.8,14.2-2.3v12.1C333.7,325.8,330.5,329.1,326.4,329.1
	L326.4,329.1z M326.4,329.1"/>
<path d="M185.5,138.4c0.9,0,1.9,0.1,2.8,0.1c14.7,0,28.6-5.4,39.5-15.3c23.9-21.8,25.7-59,3.9-83c-10.6-11.6-25-18.4-40.7-19.1
	c-15.7-0.7-30.7,4.7-42.3,15.3c-23.9,21.8-25.7,59-3.9,83C155.4,130.8,169.9,137.6,185.5,138.4L185.5,138.4z M158.4,46.9
	c8.2-7.5,18.8-11.6,29.8-11.6c0.7,0,1.4,0,2.1,0.1c11.8,0.5,22.7,5.7,30.7,14.4c16.5,18.1,15.2,46.2-2.9,62.6
	c-8.8,8-20.1,12.1-31.9,11.5c-11.8-0.6-22.7-5.7-30.7-14.4C139,91.5,140.3,63.4,158.4,46.9L158.4,46.9z M158.4,46.9"/>
<path d="M204.1,97.1c-2.9,2.7-3.2,7.2-0.5,10.2c1.4,1.6,3.4,2.3,5.3,2.3c1.7,0,3.5-0.6,4.8-1.9c7.5-6.8,11.9-16.2,12.4-26.3
	c0.5-10.1-3-19.9-9.9-27.4c-2.7-2.9-7.2-3.2-10.2-0.5c-2.9,2.7-3.2,7.2-0.5,10.2c4.2,4.7,6.4,10.7,6.1,17
	C211.5,87.1,208.8,92.9,204.1,97.1L204.1,97.1z M204.1,97.1"/>
</svg>
