<?xml version="1.0" encoding="utf-8"?>
<!-- Generator: Adobe Illustrator 21.0.0, SVG Export Plug-In . SVG Version: 6.00 Build 0)  -->
<svg version="1.1" id="Layer_1" xmlns="http://www.w3.org/2000/svg" xmlns:xlink="http://www.w3.org/1999/xlink" x="0px" y="0px"
	 viewBox="-9 141 432 512" style="enable-background:new -9 141 432 512;" xml:space="preserve">
<g>
	<path d="M313.8,511.3c-8.9-6.1-20-9.1-30.6-12c-2.3-0.6-4.6-1.3-6.9-1.9c-13-3.8-21.4-11.4-22.4-20.2c-0.8-7.1,3.5-14,11.5-18.4
		c1.7-0.9,3.6-1.6,5.6-2.1v15.9c0,5.9,4.8,10.7,10.7,10.7c5.9,0,10.7-4.8,10.7-10.7v-15.1c6.2,1.5,12.3,4,17.3,7
		c5,3.1,11.6,1.4,14.6-3.6c3-5,1.4-11.6-3.6-14.6c-7.9-4.8-17.9-8.7-28.3-10.6v-7.7c0-5.9-4.8-10.7-10.7-10.7
		c-5.9,0-10.7,4.8-10.7,10.7v7c-5.6,0.8-11,2.4-15.9,5.1c-15.6,8.6-24.1,23.7-22.4,39.4c1.9,17.7,16,32,37.6,38.4
		c0.2,0.1,0.5,0.1,0.7,0.2v50.2c-8.8-1.5-16.1-5.2-18.5-9.7c-2.7-5.2-9.1-7.3-14.4-4.6c-5.2,2.7-7.3,9.2-4.6,14.4
		c6.5,12.5,21.5,19.5,37.4,21.3v11.1c0,5.9,4.8,10.7,10.7,10.7c5.9,0,10.7-4.8,10.7-10.7v-11.9c2.2-0.4,4.4-1,6.4-1.6
		c16.7-5.3,29.2-19.8,31.7-37.1C332.8,534.5,326.5,520,313.8,511.3z M309.4,547.1c-1.3,9.2-8,17-17,19.8c0,0,0,0,0,0v-42.6
		c3.6,1.3,6.8,2.8,9.5,4.6C310.2,534.7,309.9,543.6,309.4,547.1z"/>
	<path d="M281.7,375.7c-3.6,0-7.1,0.1-10.7,0.4V191.7c0-11.1-7.8-26.8-45-38.5c-25.2-7.9-58.5-12.2-93.7-12.2s-68.5,4.3-93.7,12.2
		c-37.2,11.6-45,27.3-45,38.5v322.7c0,11.1,7.8,26.8,45,38.5c25.2,7.9,58.5,12.2,93.7,12.2c6.7,0,13.4-0.2,20.1-0.5
		c20.2,51.7,70.5,88.5,129.3,88.5c76.5,0,138.7-62.2,138.7-138.7C420.3,437.9,358.1,375.7,281.7,375.7z M200.9,333.2
		c-0.9-5.8-6.4-9.8-12.2-8.9c-17.3,2.8-36.8,4.2-56.4,4.2c-33.1,0-64.2-4-87.3-11.2c-24.5-7.7-30-15.8-30-18.1v-79
		c6.1,3.5,13.8,6.8,23.6,9.9c25.2,7.9,58.5,12.2,93.7,12.2s68.5-4.3,93.7-12.2c9.8-3.1,17.5-6.4,23.6-9.9v25.2
		c0,2.3-5.5,10.4-30,18.1c-23.2,7.2-54.2,11.2-87.3,11.2c-15.4,0-30.4-0.9-44.6-2.6c-5.8-0.7-11.2,3.5-11.9,9.3
		c-0.7,5.8,3.5,11.2,9.3,11.9c15.1,1.8,30.9,2.7,47.2,2.7c35.2,0,68.5-4.3,93.7-12.2c9.8-3.1,17.5-6.4,23.6-9.9v79
		c0,2.3-5.5,10.5-30,18.1c-23.2,7.2-54.2,11.2-87.3,11.2s-64.2-4-87.3-11.2c-24.5-7.7-30-15.8-30-18.1v-25.2
		c6.1,3.5,13.8,6.8,23.6,9.9c25.2,7.9,58.5,12.2,93.7,12.2c21,0,41.1-1.5,59.8-4.5C197.9,344.5,201.9,339,200.9,333.2z M15,381.6
		c6.1,3.5,13.8,6.8,23.6,9.9c25.2,7.9,58.5,12.2,93.7,12.2c28.1,0,54.9-2.8,77.4-7.9c-12.5,7.6-23.9,17.2-33.5,28.5
		c-2.8,3.3-5.4,6.7-7.9,10.1c-11.6,1.1-23.7,1.6-36,1.6c-15.4,0-30.4-0.9-44.6-2.6c-5.8-0.7-11.2,3.5-11.9,9.3
		c-0.7,5.8,3.5,11.2,9.3,11.9c15.1,1.8,30.9,2.7,47.2,2.7c7.8,0,15.6-0.2,23.2-0.7c-0.1,0.2-0.2,0.3-0.2,0.5c0,0,0,0,0,0
		c-0.4,0.8-0.7,1.7-1.1,2.5c-0.1,0.2-0.2,0.5-0.3,0.7c-0.2,0.4-0.3,0.8-0.5,1.2c-3.7,8.9-6.4,18.2-8.2,27.9
		c-4.3,0.1-8.6,0.2-12.9,0.2c-33.1,0-64.2-4-87.3-11.2c-24.5-7.7-30-15.8-30-18.1L15,381.6L15,381.6z M45,173.6
		c23.2-7.2,54.2-11.2,87.3-11.2c33.1,0,64.2,4,87.3,11.2c24.5,7.7,30,15.8,30,18.1c0,2.3-5.5,10.5-30,18.1
		c-23.2,7.2-54.2,11.2-87.3,11.2s-64.2-4-87.3-11.2c-24.5-7.7-30-15.8-30-18.1C15,189.4,20.5,181.2,45,173.6z M146.1,543.4
		c-4.6,0.2-9.1,0.2-13.7,0.2c-33.1,0-64.2-4-87.3-11.2c-24.5-7.7-30-15.8-30-18.1v-25.2c6.1,3.5,13.8,6.8,23.6,9.9
		c25.2,7.9,58.5,12.2,93.7,12.2c3.6,0,7.1-0.1,10.7-0.1c0,1.1,0,2.2,0,3.3c0,1.2,0,2.4,0,3.6c0,0.4,0,0.8,0,1.1
		c0,0.8,0.1,1.7,0.1,2.5c0,0.5,0.1,0.9,0.1,1.4c0,0.7,0.1,1.5,0.1,2.2c0,0.5,0.1,1,0.1,1.5c0.1,0.7,0.1,1.4,0.2,2.1
		c0.1,0.5,0.1,1.1,0.2,1.6c0.1,0.6,0.1,1.3,0.2,1.9c0.1,0.6,0.2,1.2,0.2,1.8c0.1,0.6,0.2,1.2,0.3,1.7c0.1,0.6,0.2,1.3,0.3,1.9
		c0.1,0.5,0.2,1,0.3,1.5c0.1,0.7,0.3,1.4,0.4,2.1c0.1,0.4,0.2,0.9,0.3,1.3C146,542.9,146,543.2,146.1,543.4z M281.7,631.7
		c-52.6,0-97.1-34.7-112-82.4c-0.2-0.6-0.3-1.2-0.5-1.7c-0.3-1-0.6-2-0.8-2.9c-0.2-0.7-0.3-1.3-0.5-2c-0.1-0.5-0.3-1.1-0.4-1.6
		c-0.3-1.1-0.5-2.2-0.7-3.4c-0.1-0.5-0.2-0.9-0.3-1.4c-0.2-1-0.4-2-0.5-3c-0.1-0.3-0.1-0.6-0.2-0.9c-0.2-1.3-0.4-2.5-0.5-3.8
		c0-0.4-0.1-0.7-0.1-1.1c-0.1-1.2-0.3-2.4-0.4-3.7c0-0.1,0-0.2,0-0.3c-0.1-1.3-0.2-2.7-0.2-4c0-0.3,0-0.7,0-1c0-1.4-0.1-2.7-0.1-4.1
		c0-1.6,0-3.2,0.1-4.9c0-0.3,0-0.5,0-0.8c0.1-1.5,0.2-2.9,0.3-4.3c0-0.5,0.1-0.9,0.1-1.4c0.1-1.3,0.3-2.6,0.4-3.8
		c0.1-0.7,0.2-1.4,0.3-2c0.1-0.6,0.2-1.2,0.3-1.9c0.2-1.5,0.5-3,0.8-4.5c0,0,0,0,0-0.1c8.8-42.8,41-77.2,82.6-89.2
		c0.2,0,0.3-0.1,0.5-0.1c1-0.3,1.9-0.5,2.9-0.8c1.1-0.3,2.2-0.5,3.4-0.8c0.4-0.1,0.9-0.2,1.3-0.3c1.5-0.3,3-0.6,4.4-0.8
		c6.5-1.1,13.1-1.7,19.9-1.7c64.7,0,117.3,52.6,117.3,117.3C399,579,346.4,631.7,281.7,631.7z"/>
	<path d="M57.4,266.9c-1.6-0.4-3.1-0.7-4.6-1.1c-5.7-1.5-11.5,1.9-13,7.6c-1.5,5.7,1.9,11.5,7.6,13c1.7,0.4,3.3,0.9,5.1,1.3
		c0.8,0.2,1.7,0.3,2.5,0.3c4.8,0,9.2-3.3,10.4-8.2C66.6,274,63.1,268.3,57.4,266.9z"/>
	<path d="M220.6,338.8c1,0,2-0.1,3-0.4c2.1-0.6,4.2-1.3,6.3-2c5.6-1.9,8.6-7.9,6.7-13.5c-1.9-5.6-7.9-8.6-13.5-6.7
		c-1.8,0.6-3.7,1.2-5.5,1.8c-5.6,1.7-8.9,7.6-7.2,13.3C211.8,335.9,216.1,338.8,220.6,338.8z"/>
	<path d="M47.4,447.7c1.7,0.4,3.3,0.9,5.1,1.3c0.8,0.2,1.7,0.3,2.5,0.3c4.8,0,9.2-3.3,10.4-8.2c1.4-5.7-2.2-11.5-7.9-12.8
		c-1.6-0.4-3.1-0.7-4.6-1.1c-5.7-1.5-11.5,1.9-13,7.6C38.3,440.4,41.7,446.2,47.4,447.7z"/>
</g>
</svg>
