<?xml version="1.0" encoding="utf-8"?>
<!-- Generator: Adobe Illustrator 21.0.0, SVG Export Plug-In . SVG Version: 6.00 Build 0)  -->
<svg version="1.1" id="Layer_1" xmlns="http://www.w3.org/2000/svg" xmlns:xlink="http://www.w3.org/1999/xlink" x="0px" y="0px"
	 viewBox="0 0 8.6 8.6" style="enable-background:new 0 0 8.6 8.6;" xml:space="preserve">
<style type="text/css">
	.st0{fill:#FFFFFF;}
</style>
<g>
	<path class="st0" d="M5.3,4.3l3-3c0.3-0.3,0.3-0.7,0-1C8,0,7.6,0,7.3,0.2l-3,3l-3-3C1,0,0.5,0,0.2,0.2C0,0.5,0,1,0.2,1.2l3,3l-3,3
		C0,7.6,0,8,0.2,8.3c0.1,0.1,0.3,0.2,0.5,0.2s0.4-0.1,0.5-0.2l3-3l3,3c0.1,0.1,0.3,0.2,0.5,0.2s0.4-0.1,0.5-0.2c0.3-0.3,0.3-0.7,0-1
		L5.3,4.3z"/>
</g>
</svg>
