<?xml version="1.0" encoding="utf-8"?>
<!-- Generator: Adobe Illustrator 21.0.0, SVG Export Plug-In . SVG Version: 6.00 Build 0)  -->
<svg version="1.1" id="Layer_1" xmlns="http://www.w3.org/2000/svg" xmlns:xlink="http://www.w3.org/1999/xlink" x="0px" y="0px"
	 viewBox="-27.7 141 469.3 512" style="enable-background:new -27.7 141 469.3 512;" xml:space="preserve">
<g transform="translate(1 1)">
	<path d="M329.7,652c-61.4,0-110.9-49.5-110.9-110.9s49.5-110.9,110.9-110.9s110.9,49.5,110.9,110.9S391.2,652,329.7,652z
		 M329.7,447.2c-52.1,0-93.9,41.8-93.9,93.9c0,52.1,41.8,93.9,93.9,93.9s93.9-41.8,93.9-93.9C423.6,489,381.8,447.2,329.7,447.2z"/>
	<path d="M328,582.9c-1.7,0-4.3-0.9-5.1-1.7l-41-33.3c-3.4-2.6-4.3-8.5-0.9-11.9c2.6-3.4,8.5-4.3,11.9-0.9l33.3,27.3l47.8-68.3
		c2.6-4.3,7.7-5.1,11.9-1.7c4.3,2.6,5.1,7.7,1.7,11.9l-52.9,75.9c-1.7,1.7-3.4,3.4-6,3.4C328.9,582.9,328,582.9,328,582.9z"/>
	<path d="M244.4,225.3H124.9c-9.4,0-17.1-7.7-17.1-17.1v-51.2c0-9.4,7.7-17.1,17.1-17.1h119.5c9.4,0,17.1,7.7,17.1,17.1v51.2
		C261.5,217.7,253.8,225.3,244.4,225.3z M244.4,208.3v8.5V208.3L244.4,208.3z M124.9,157.1v51.2h119.5v-51.2H124.9z"/>
	<path d="M278.5,336.3H90.8c-3.4,0-6-1.7-7.7-4.3s-0.9-6,0.9-8.5l36.7-51.2c5.1-7.7,13.7-11.9,23-11.9h81.9c9.4,0,17.9,4.3,23,11.9
		l36.7,51.2c1.7,2.6,1.7,6,0.9,8.5C284.5,334.6,281.9,336.3,278.5,336.3z M107,319.2h154.5l-27.3-38.4c-1.7-2.6-5.1-4.3-9.4-4.3
		h-81.9c-3.4,0-6.8,1.7-9.4,4.3L107,319.2z"/>
	<path d="M116.4,421.6c-18.8,0-34.1-15.4-34.1-34.1s15.4-34.1,34.1-34.1s34.1,15.4,34.1,34.1S135.2,421.6,116.4,421.6z M116.4,370.4
		c-9.4,0-17.1,7.7-17.1,17.1c0,9.4,7.7,17.1,17.1,17.1s17.1-7.7,17.1-17.1C133.5,378.1,125.8,370.4,116.4,370.4z"/>
	<path d="M252.9,421.6c-18.8,0-34.1-15.4-34.1-34.1s15.4-34.1,34.1-34.1s34.1,15.4,34.1,34.1S271.7,421.6,252.9,421.6z M252.9,370.4
		c-9.4,0-17.1,7.7-17.1,17.1c0,9.4,7.7,17.1,17.1,17.1c9.4,0,17.1-7.7,17.1-17.1C270,378.1,262.3,370.4,252.9,370.4z"/>
	<path d="M299,396h-20.5c-5.1,0-8.5-3.4-8.5-8.5c0-9.4-7.7-17.1-17.1-17.1s-17.1,7.7-17.1,17.1c0,5.1-3.4,8.5-8.5,8.5H142
		c-5.1,0-8.5-3.4-8.5-8.5c0-9.4-7.7-17.1-17.1-17.1s-17.1,7.7-17.1,17.1c0,5.1-3.4,8.5-8.5,8.5H70.3c-12.8,0-22.2-9.4-22.2-22.2
		v-33.3c0-11.9,9.4-22.2,22.2-22.2h229.5c11.9,0,22.2,9.4,22.2,22.2v33.3C321.2,386.6,311.8,396,299,396z M286.2,378.9h13.7
		c2.6,0,5.1-2.6,5.1-5.1v-33.3c0-2.6-2.6-5.1-5.1-5.1H70.3c-2.6,0-5.1,2.6-5.1,5.1v33.3c0,2.6,2.6,5.1,5.1,5.1H84
		c3.4-14.5,17.1-25.6,33.3-25.6s29,11.1,33.3,25.6h70.8c3.4-14.5,17.1-25.6,33.3-25.6S281.9,364.4,286.2,378.9z"/>
	<path d="M184.7,481.3h-128c-5.1,0-8.5-3.4-8.5-8.5s3.4-8.5,8.5-8.5h128c5.1,0,8.5,3.4,8.5,8.5S189.8,481.3,184.7,481.3z"/>
	<path d="M184.7,524h-128c-5.1,0-8.5-3.4-8.5-8.5c0-5.1,3.4-8.5,8.5-8.5h128c5.1,0,8.5,3.4,8.5,8.5C193.2,520.6,189.8,524,184.7,524
		z"/>
	<path d="M184.7,566.7h-128c-5.1,0-8.5-3.4-8.5-8.5s3.4-8.5,8.5-8.5h128c5.1,0,8.5,3.4,8.5,8.5S189.8,566.7,184.7,566.7z"/>
	<path d="M184.7,336.3c-5.1,0-8.5-3.4-8.5-8.5V268c0-5.1,3.4-8.5,8.5-8.5c5.1,0,8.5,3.4,8.5,8.5v59.7
		C193.2,332.9,189.8,336.3,184.7,336.3z"/>
	<path d="M329.7,652H-3.1c-14.5,0-25.6-11.1-25.6-25.6V182.7c0-14.5,11.1-25.6,25.6-25.6h110.9c0-9.4,7.7-17.1,17.1-17.1h119.5
		c9.4,0,17.1,7.7,17.1,17.1h110.9c14.5,0,25.6,11.1,25.6,25.6v275.6c0,3.4-1.7,6-4.3,7.7c-2.6,1.7-6,0.9-8.5-0.9
		c-17.1-11.9-35.8-17.9-55.5-17.9c-52.1,0-93.9,41.8-93.9,93.9c0,52.1,41.8,93.9,93.9,93.9c5.1,0,8.5,3.4,8.5,8.5
		S334.9,652,329.7,652z M-3.1,174.1c-5.1,0-8.5,3.4-8.5,8.5v443.7c0,5.1,3.4,8.5,8.5,8.5h273.9c-30.7-19.6-52.1-54.6-52.1-93.9
		c0-61.4,49.5-110.9,110.9-110.9c17.9,0,35.8,4.3,51.2,12.8V182.7c0-5.1-3.4-8.5-8.5-8.5H252.9c-5.1,0-8.5-3.4-8.5-8.5v-8.5H124.9
		v8.5c0,5.1-3.4,8.5-8.5,8.5H-3.1z"/>
	<path d="M253.8,617.9H22.5c-9.4,0-17.1-7.7-17.1-17.1V208.3c0-9.4,7.7-17.1,17.1-17.1h93.9c5.1,0,8.5,3.4,8.5,8.5v8.5h119.5v-8.5
		c0-5.1,3.4-8.5,8.5-8.5h93.9c9.4,0,17.1,7.7,17.1,17.1v233.8c0,2.6-0.9,5.1-3.4,6.8c-2.6,1.7-5.1,2.6-7.7,1.7
		c-7.7-2.6-15.4-3.4-23-3.4c-52.1,0-93.9,41.8-93.9,93.9c0,23,8.5,45.2,23.9,62.3c2.6,2.6,2.6,6,1.7,9.4
		C260.6,616.2,257.2,617.9,253.8,617.9z M22.5,208.3v392.5h214.2c-11.1-17.9-17.9-38.4-17.9-59.7c0-61.4,49.5-110.9,110.9-110.9
		c6,0,11.1,0.9,17.1,1.7V208.3h-85.3c0,9.4-7.7,17.1-17.1,17.1H124.9c-9.4,0-17.1-7.7-17.1-17.1H22.5z"/>
</g>
</svg>
