<?xml version="1.0" encoding="utf-8"?>
<!-- Generator: Adobe Illustrator 21.0.0, SVG Export Plug-In . SVG Version: 6.00 Build 0)  -->
<svg version="1.1" id="Слой_1" xmlns="http://www.w3.org/2000/svg" xmlns:xlink="http://www.w3.org/1999/xlink" x="0px" y="0px"
	 viewBox="0 0 233.1 233.1" style="enable-background:new 0 0 233.1 233.1;" xml:space="preserve">
<style type="text/css">
	.st0{fill:#3B5998;}
	.st1{fill:#FFFFFF;}
</style>
<g>
	<path class="st0" d="M116.5,0c64.4,0,116.5,52.2,116.5,116.5c0,64.4-52.2,116.5-116.5,116.5C52.2,233.1,0,180.9,0,116.5
		C0,52.2,52.2,0,116.5,0L116.5,0z M116.5,0"/>
	<path class="st1" d="M130.7,80.2h15V58h-17.7v0.1c-21.4,0.8-25.8,12.8-26.2,25.4h0v11.1H87.3v21.7h14.6v58.2h21.9v-58.2h18
		l3.5-21.7h-21.4v-6.7C123.8,83.6,126.7,80.2,130.7,80.2L130.7,80.2z M130.7,80.2"/>
</g>
</svg>
