<?xml version="1.0" encoding="utf-8"?>
<!-- Generator: Adobe Illustrator 21.0.0, SVG Export Plug-In . SVG Version: 6.00 Build 0)  -->
<svg version="1.1" id="Слой_1" xmlns="http://www.w3.org/2000/svg" xmlns:xlink="http://www.w3.org/1999/xlink" x="0px" y="0px"
	 viewBox="0 0 233.1 233.1" style="enable-background:new 0 0 233.1 233.1;" xml:space="preserve">
<style type="text/css">
	.st0{fill:#3F729B;}
	.st1{fill:#FFFFFF;}
</style>
<g>
	<path class="st0" d="M116.5,0c64.4,0,116.5,52.2,116.5,116.5c0,64.4-52.2,116.5-116.5,116.5C52.2,233.1,0,180.9,0,116.5
		C0,52.2,52.2,0,116.5,0L116.5,0z M116.5,0"/>
	<path class="st1" d="M156.7,51H76.3C62.3,51,51,62.3,51,76.3v80.4c0,14,11.4,25.3,25.3,25.3h80.4c14,0,25.3-11.4,25.3-25.3V76.3
		C182.1,62.3,170.7,51,156.7,51L156.7,51z M164.7,65.6l2.9,0v21.8l-21.9,0.1l-0.1-21.8L164.7,65.6z M116.5,94.6
		c18.2,0,21.9,17.1,21.9,21.9c0,12.1-9.8,21.9-21.9,21.9c-12.1,0-21.9-9.8-21.9-21.9C94.6,111.7,98.3,94.6,116.5,94.6L116.5,94.6z
		 M167.7,155.2c0,6.9-5.6,12.6-12.6,12.6H77.7c-6.9,0-12.6-5.6-12.6-12.6v-53.2h18.2c-1.7,4.2-2.6,9.8-2.6,14.6
		c0,19.8,16.1,35.9,35.9,35.9c19.8,0,35.8-16.1,35.8-35.9c0-4.8-1-10.4-2.6-14.6h18L167.7,155.2L167.7,155.2z M167.7,155.2"/>
</g>
</svg>
