<?xml version="1.0" encoding="utf-8"?>
<!-- Generator: Adobe Illustrator 21.0.0, SVG Export Plug-In . SVG Version: 6.00 Build 0)  -->
<svg version="1.1" id="Layer_1" xmlns="http://www.w3.org/2000/svg" xmlns:xlink="http://www.w3.org/1999/xlink" x="0px" y="0px"
	 viewBox="-49 226.3 512 341.3" style="enable-background:new -49 226.3 512 341.3;" xml:space="preserve">
<g transform="translate(0 -1)">
	<path d="M69.3,551.6H-30.8c-0.6,0-1.1-0.5-1.1-1.1v-14.8c0-0.6,0.5-1.1,1.1-1.1H69.3c0.6,0,1.1,0.5,1.1,1.1v14.8
		C70.5,551.1,70,551.6,69.3,551.6z M69.3,568.7c10,0,18.2-8.1,18.2-18.2v-14.8c0-10-8.1-18.2-18.2-18.2H-30.8
		c-10,0-18.2,8.1-18.2,18.2v14.8c0,10,8.1,18.2,18.2,18.2H69.3z"/>
	<path d="M87.5,304.1c0,14.1-11.5,25.6-25.6,25.6s-25.6-11.5-25.6-25.6s11.5-25.6,25.6-25.6S87.5,290,87.5,304.1z M104.6,304.1
		c0-23.6-19.1-42.7-42.7-42.7s-42.7,19.1-42.7,42.7c0,23.6,19.1,42.7,42.7,42.7S104.6,327.7,104.6,304.1z"/>
	<path d="M104.6,312.7v-17.1h341.3v17.1H104.6z M446.6,329.7c9,0,16.4-7.3,16.4-16.4v-18.4c0-9-7.3-16.4-16.4-16.4H87.5v51.2H446.6z
		"/>
	<path d="M36.3,304.1c0-14.1,11.5-25.6,25.6-25.6h8.5V252c0-13.6-11-24.7-24.7-24.7h-53c-13.6,0-24.7,11-24.7,24.7v282.5H70.5V329.7
		h-8.5C47.8,329.7,36.3,318.3,36.3,304.1z M53.4,517.5h-68.3V252c0-4.2,3.4-7.6,7.6-7.6h53c4.2,0,7.6,3.4,7.6,7.6v10.3
		c-19.5,4-34.1,21.2-34.1,41.8c0,20.6,14.7,37.9,34.1,41.8V517.5z"/>
	<polygon points="183.9,281 149.8,315.2 161.8,327.2 196,293.1 	"/>
	<polygon points="252.2,281 218,315.2 230.1,327.2 264.2,293.1 	"/>
	<polygon points="320.4,281 286.3,315.2 298.4,327.2 332.5,293.1 	"/>
	<polygon points="388.7,281 354.6,315.2 366.6,327.2 400.8,293.1 	"/>
</g>
</svg>
