<?xml version="1.0" encoding="utf-8"?>
<!-- Generator: Adobe Illustrator 21.0.0, SVG Export Plug-In . SVG Version: 6.00 Build 0)  -->
<svg version="1.1" id="Слой_1" xmlns="http://www.w3.org/2000/svg" xmlns:xlink="http://www.w3.org/1999/xlink" x="0px" y="0px"
	 viewBox="0 0 177 180" style="enable-background:new 0 0 177 180;" xml:space="preserve">
<path d="M61.5,86.9C54.7,79.2,45.6,75,36,75c-9.7,0-18.8,4.2-25.6,11.9c-13.8,15.6-13.8,41.1,0,56.7L36,172.5l25.6-28.9
	C75.4,128,75.4,102.6,61.5,86.9L61.5,86.9z M57,139.6L36,163.5l-21.1-23.8C3,126.2,3,104.3,14.9,90.9C20.5,84.5,28,81,36,81
	c7.9,0,15.4,3.5,21.1,9.9C69,104.3,69,126.2,57,139.6L57,139.6z M57,139.6"/>
<path d="M144.7,73.5l19.4-21.9c10.4-11.8,10.4-30.9,0-42.7c-5.2-5.8-12-9-19.4-9c-7.3,0-14.2,3.2-19.4,9
	c-10.4,11.8-10.4,30.9,0,42.7L144.7,73.5z M129.8,13c4-4.5,9.3-7,14.9-7c5.6,0,10.9,2.5,14.9,7c8.5,9.6,8.5,25.1,0,34.7l-14.9,16.8
	l-14.9-16.8C121.3,38.1,121.3,22.6,129.8,13L129.8,13z M129.8,13"/>
<path d="M156.3,163.5c-1.6-0.4-3.2,0.7-3.6,2.3c-0.4,1.5-1,2.9-2,4.2c-1,1.3-0.8,3.2,0.5,4.2c0.6,0.4,1.2,0.6,1.9,0.6
	c0.9,0,1.8-0.4,2.4-1.1c1.5-1.9,2.6-4.2,3.1-6.6C158.9,165.5,157.9,163.9,156.3,163.5L156.3,163.5z M156.3,163.5"/>
<path d="M94.5,93c-1.3,0-2.6-0.2-3.8-0.7c-1.5-0.6-3.3,0.2-3.9,1.7c-0.6,1.6,0.2,3.3,1.7,3.9c1.9,0.7,3.9,1.1,5.9,1.1h1.1
	c1.7,0,3-1.3,3-3c0-1.7-1.3-3-3-3H94.5z M94.5,93"/>
<path d="M87.3,74c0.5,0,1.1-0.1,1.6-0.5c1.3-0.8,2.8-1.3,4.4-1.5c1.7-0.2,2.8-1.7,2.7-3.3c-0.2-1.7-1.7-2.8-3.3-2.7
	c-2.5,0.3-4.8,1.1-6.9,2.4c-1.4,0.9-1.8,2.7-1,4.1C85.4,73.5,86.3,74,87.3,74L87.3,74z M87.3,74"/>
<path d="M52.7,174h-6c-1.7,0-3,1.3-3,3c0,1.7,1.3,3,3,3h6c1.7,0,3-1.3,3-3C55.7,175.3,54.3,174,52.7,174L52.7,174z M52.7,174"/>
<path d="M106.5,120c-0.3,0-0.5,0-0.8,0c-1.7,0.1-2.9,1.5-2.9,3.1c0.1,1.6,1.4,2.9,3,2.9c0,0,0.1,0,0.1,0h5.9c1.7,0,3-1.4,3-3
	c0-1.7-1.3-3-3-3H106.5z M106.5,120"/>
<path d="M105,72h6c1.7,0,3-1.3,3-3c0-1.7-1.4-3-3-3h-6c-1.7,0-3,1.3-3,3C102,70.7,103.3,72,105,72L105,72z M105,72"/>
<path d="M141.8,120c-1.7,0-3,1.3-3,3c0,1.7,1.3,3,3,3h6c1.7,0,3-1.4,3-3c0-1.7-1.3-3-3-3H141.8z M141.8,120"/>
<path d="M152.5,96c0-1.7-1.3-3-3-3h-6c-1.7,0-3,1.3-3,3c0,1.7,1.3,3,3,3h6C151.2,99,152.5,97.7,152.5,96L152.5,96z M152.5,96"/>
<path d="M123.8,126h6c1.7,0,3-1.4,3-3c0-1.7-1.3-3-3-3h-6c-1.7,0-3,1.3-3,3C120.8,124.7,122.2,126,123.8,126L123.8,126z M123.8,126"
	/>
<path d="M129,72c1.7,0,3-1.3,3-3c0-1.7-1.3-3-3-3h-6c-1.7,0-3,1.3-3,3c0,1.7,1.4,3,3,3H129z M129,72"/>
<path d="M107.5,93c-1.7,0-3,1.3-3,3c0,1.7,1.3,3,3,3h6c1.7,0,3-1.3,3-3c0-1.7-1.3-3-3-3H107.5z M107.5,93"/>
<path d="M134.5,96c0-1.7-1.3-3-3-3h-6c-1.7,0-3,1.3-3,3c0,1.7,1.3,3,3,3h6C133.2,99,134.5,97.7,134.5,96L134.5,96z M134.5,96"/>
<path d="M176.8,106.9c-0.3-1.6-1.8-2.8-3.4-2.5c-1.6,0.2-2.8,1.8-2.5,3.4c0.1,0.5,0.1,1.1,0.1,1.7c0,1-0.1,2-0.4,3
	c-0.5,1.6,0.4,3.3,2,3.7c0.3,0.1,0.6,0.1,0.8,0.1c1.3,0,2.5-0.9,2.9-2.2c0.4-1.5,0.7-3.1,0.7-4.6C177,108.7,176.9,107.8,176.8,106.9
	L176.8,106.9z M176.8,106.9"/>
<path d="M124.7,174h-6c-1.7,0-3,1.3-3,3c0,1.7,1.3,3,3,3h6c1.7,0,3-1.3,3-3C127.7,175.3,126.3,174,124.7,174L124.7,174z M124.7,174"
	/>
<path d="M106.7,174h-6c-1.7,0-3,1.3-3,3c0,1.7,1.3,3,3,3h6c1.7,0,3-1.3,3-3C109.7,175.3,108.3,174,106.7,174L106.7,174z M106.7,174"
	/>
<path d="M139.7,150c0-1.7-1.3-3-3-3h-6c-1.7,0-3,1.3-3,3c0,1.7,1.3,3,3,3h6C138.3,153,139.7,151.7,139.7,150L139.7,150z M139.7,150"
	/>
<path d="M121.7,150c0-1.7-1.3-3-3-3h-6c-1.7,0-3,1.3-3,3c0,1.7,1.3,3,3,3h6C120.3,153,121.7,151.7,121.7,150L121.7,150z M121.7,150"
	/>
<path d="M142.5,174h-5.8c-1.7,0-3,1.3-3,3c0,1.7,1.3,3,3,3h5.9l0.1-3v3c1.7,0,2.9-1.3,2.9-3C145.6,175.3,144.1,174,142.5,174
	L142.5,174z M142.5,174"/>
<path d="M153.1,158.2c0.6,0,1.3-0.2,1.8-0.6c1.3-1,1.5-2.9,0.5-4.2c-1.5-1.9-3.4-3.5-5.6-4.6c-1.5-0.7-3.3-0.1-4,1.4
	c-0.7,1.5-0.1,3.3,1.3,4c1.4,0.7,2.6,1.7,3.6,2.9C151.3,157.8,152.2,158.2,153.1,158.2L153.1,158.2z M153.1,158.2"/>
<path d="M164.5,119.2c-1.3,0.5-2.7,0.8-4.1,0.8h-0.6c-1.7,0-3,1.3-3,3c0,1.7,1.3,3,3,3h0.6c2.2,0,4.4-0.4,6.4-1.3
	c1.5-0.6,2.3-2.4,1.6-3.9C167.8,119.3,166,118.5,164.5,119.2L164.5,119.2z M164.5,119.2"/>
<path d="M82.6,89.6c1.6-0.5,2.4-2.2,1.9-3.8c-0.3-1.1-0.5-2.2-0.5-3.3c0-0.5,0-0.9,0.1-1.3c0.2-1.6-1-3.1-2.6-3.4
	c-1.7-0.2-3.1,1-3.4,2.6C78,81.1,78,81.8,78,82.5c0,1.8,0.3,3.5,0.8,5.2c0.4,1.3,1.6,2.1,2.8,2.1C81.9,89.7,82.3,89.7,82.6,89.6
	L82.6,89.6z M82.6,89.6"/>
<path d="M70.7,174h-6c-1.7,0-3,1.3-3,3c0,1.7,1.3,3,3,3h6c1.7,0,3-1.3,3-3C73.7,175.3,72.3,174,70.7,174L70.7,174z M70.7,174"/>
<path d="M100.8,151.8c1.1,0,2.2-0.7,2.7-1.8c0.7-1.5,0-3.3-1.5-4c-1.4-0.6-2.7-1.6-3.7-2.8c-1.1-1.3-3-1.4-4.2-0.4
	c-1.3,1.1-1.4,3-0.4,4.2c1.6,1.9,3.6,3.4,5.8,4.4C100,151.7,100.4,151.8,100.8,151.8L100.8,151.8z M100.8,151.8"/>
<path d="M168.7,95.2c-2.1-1.2-4.5-2-7-2.2c-1.6-0.1-3.1,1.1-3.2,2.8c-0.1,1.7,1.1,3.1,2.8,3.2c1.6,0.1,3.1,0.6,4.4,1.4
	c0.5,0.3,1,0.4,1.5,0.4c1,0,2-0.5,2.6-1.5C170.6,97.9,170.2,96,168.7,95.2L168.7,95.2z M168.7,95.2"/>
<path d="M88.7,174h-6c-1.7,0-3,1.3-3,3c0,1.7,1.3,3,3,3h6c1.7,0,3-1.3,3-3C91.7,175.3,90.3,174,88.7,174L88.7,174z M88.7,174"/>
<path d="M96.1,134.5c0.3-1.5,0.9-3,1.9-4.2c1-1.3,0.7-3.2-0.6-4.2c-1.4-1-3.2-0.7-4.2,0.6c-1.5,2-2.4,4.2-2.9,6.7
	c-0.3,1.6,0.7,3.2,2.4,3.5c0.2,0,0.4,0.1,0.6,0.1C94.6,136.9,95.9,136,96.1,134.5L96.1,134.5z M96.1,134.5"/>
<path d="M145.5,45c9.1,0,16.5-7.4,16.5-16.5c0-9.1-7.4-16.5-16.5-16.5c-9.1,0-16.5,7.4-16.5,16.5C129,37.6,136.4,45,145.5,45
	L145.5,45z M145.5,18c5.8,0,10.5,4.7,10.5,10.5c0,5.8-4.7,10.5-10.5,10.5c-5.8,0-10.5-4.7-10.5-10.5C135,22.7,139.7,18,145.5,18
	L145.5,18z M145.5,18"/>
<path d="M36,93c-9.9,0-18,8.1-18,18c0,9.9,8.1,18,18,18c9.9,0,18-8.1,18-18C54,101.1,45.9,93,36,93L36,93z M36,123
	c-6.6,0-12-5.4-12-12c0-6.6,5.4-12,12-12c6.6,0,12,5.4,12,12C48,117.6,42.6,123,36,123L36,123z M36,123"/>
</svg>
