<?xml version="1.0" encoding="utf-8"?>
<!-- Generator: Adobe Illustrator 21.0.0, SVG Export Plug-In . SVG Version: 6.00 Build 0)  -->
<svg version="1.1" id="Слой_1" xmlns="http://www.w3.org/2000/svg" xmlns:xlink="http://www.w3.org/1999/xlink" x="0px" y="0px"
	 viewBox="0 0 397.3 346.9" style="enable-background:new 0 0 397.3 346.9;" xml:space="preserve">
<style type="text/css">
	.st0{stroke:#000000;stroke-width:6;stroke-miterlimit:10;}
</style>
<path d="M254.3,25.7C239.6,9.1,220,0,199.1,0c-20.9,0-40.5,9.1-55.2,25.7c-29.8,33.8-29.8,88.6,0,122.4l55.2,62.4l55.2-62.4
	C284.2,114.4,284.2,59.5,254.3,25.7L254.3,25.7z M244.6,139.5L199.1,191l-45.5-51.4c-25.7-29-25.7-76.2,0-105.2
	C165.8,20.5,181.9,13,199.1,13c17.1,0,33.3,7.6,45.5,21.4C270.3,63.3,270.3,110.5,244.6,139.5L244.6,139.5z M244.6,139.5"/>
<path d="M199.1,38.9c-21.4,0-38.9,17.4-38.9,38.9c0,21.4,17.4,38.8,38.9,38.8c21.4,0,38.9-17.4,38.9-38.8
	C237.9,56.3,220.5,38.9,199.1,38.9L199.1,38.9z M199.1,103.6c-14.3,0-25.9-11.6-25.9-25.9c0-14.3,11.6-25.9,25.9-25.9
	c14.3,0,25.9,11.6,25.9,25.9C225,92,213.4,103.6,199.1,103.6L199.1,103.6z M199.1,103.6"/>
<path class="st0" d="M389.3,199.7c-0.8-0.5-1.6-1-3.1-2c1.4-2.4,2.2-5.1,4.1-6.7c4.5-3.8,4.1-8.1,2.1-12.6c-2-4.5-6-5.6-10.5-5
	c-6.4,0.9-11.5-1.3-15.5-6.1c-3.6-4.4-7.9-6-13.6-5.4c-10.3,1.1-12.1-0.2-16-9.9c-1.8-4.6-5.9-5.9-10.1-3.2c-1.7,1.1-3,2.9-4.7,3.6
	c-1.8,0.7-4.7,1.5-5.8,0.7c-3.8-3.1-7.8-2-11.9-2.1c-2.2,0-4.9-0.7-6.5-2.1c-4.6-4.2-7.9-9-8.5-15.8c-0.5-5.5-2-8.7-5.3-10.6
	c-0.8,2.2-1.7,4.4-2.6,6.5c0.8,1.1,1.2,2.9,1.5,5.8c1,9.2,5.7,17.1,13.3,20.5c7.8,3.5,17.2,3.6,26,4.2c2.6,0.2,5.3-2.9,8.3-4.7
	c3.9,11.5,12.2,15.5,24.1,13.9c2-0.3,5,1,6.4,2.6c5.9,6.4,12.7,10,21.6,8.9c3.4-0.4,5.4,2.8,4.3,6.4c-0.3,1.1-1,2.1-1.5,3.2
	c-3.8,7.7-3.6,8.9,3.2,14.5c-1.3,1.4-2.7,2.8-3.9,4.3c-3.1,3.8-4.2,7.7-1.7,12.4c1.1,2.1,1.7,4.7,1.7,7.1c0,4.1-3,6.4-6.7,5.8
	c-15.9-2.8-17.8-2.6-24.8,12.6c-4,8.9-12.3,11.4-18.5,17.1c-1.1,1-3.5,0.9-5.2,0.8c-10.5-1-20.1,1.1-28.7,7.5
	c-3.3,2.5-7.6,3.8-11.6,5.1c-6.1,2-10.1,5.8-11.6,11.9c-1.5,5.9-1.2,11.6,3.6,16.2c1.4,1.4,2.7,2.9,4,4.4c4.6,5.2,10.1,7.4,17,5.4
	c2.8-0.8,5.7-1.5,10.1-2.6c-0.8,2.8-0.8,5-2,5.9c-1.3,1-3.9,1.7-5.3,1.1c-8.4-3.4-15.1-1.8-21.7,4.7c-5,4.9-11.4,8.6-17.6,12.1
	c-2.5,1.4-6.1,1.6-9.1,1.3c-5.6-0.6-6.6-2.9-4.5-8.1c3.6-8.8,2.3-11.9-6.6-15.3c-4.2-1.6-8.4-3-12.6-4.4c0-0.5,0-0.9,0-1.4
	c2.1-0.8,4.3-1.5,6.3-2.5c3.6-1.7,7.4-3.2,10.4-5.7c2-1.6,3.9-4.8,3.8-7.3c-0.1-3.8-3.9-4.7-7.1-4.8c-5.3-0.2-10.7-0.2-15.9,0.2
	c-4.5,0.4-7.7-0.9-9.8-5.1c-0.8-1.5-2.5-2.5-4-3.9c0.9-0.5,1.4-1,2-1.2c8.4-2.8,10.1-7.3,5-14.5c-1.5-2.2-4.7-4.7-6.9-4.5
	c-2.3,0.2-4.9,3-6.3,5.4c-2.1,3.6-3,8.4-8,8.6c-9.1,0.4-12.9,6.5-16.9,13.3c-3.2,5.4-7.6,10.1-12,14.5c-8.1,8.1-8.3,7.9-19.8,10.1
	c-3.4,0.6-7.1,3.3-10-0.9c-3-4.3,1.1-6.6,2.7-9.6c3.2-5.9,6.5-11.9,9.6-17.4c3.1,0.2,6.7,1.1,10.1,0.5c5.7-1.1,9.4-7.2,8.4-12.9
	c-0.2-0.9-0.6-2.1-1.3-2.6c-7.7-5.6-10-14.6-14.5-22.2c-1.5-2.5-0.8-6.3-1.1-9.6c-0.1-1.6,0.2-3.5-0.5-4.7
	c-2.3-3.7-4.4-7.9-7.8-10.4c-3.2-2.4-7.6-3.7-11.7-4.3c-3.6-0.5-6.9,0-10.2-2.6c-4.2-3.3-10.4-2.4-15.1,2.2
	c-5.9,5.8-13.2,7.9-20.7,10.2c-6.1,1.9-11.9,4.9-17.7,7.7c-3.9,1.9-7.1,2.2-11-0.8c-3.3-2.5-7.6-4.3-11.7-4.9
	c-6.6-0.9-13.3-0.4-19.9-0.5c-1.4,0-3.2,0.2-4.3-0.5c-5.5-3.4-10.8-7.1-16.8-11.1c2.3-4.9,4.6-10.1,7.1-15.1
	c0.4-0.8,1.3-1.5,2.1-1.9c5.5-2.6,7.1-6.5,4.9-11.9c-3.4-8.1-3.2-8,2.7-14.3c4.8-5.1,8.9-10.8,13.6-16c1.4-1.6,3.6-2.8,5.7-3.3
	c6.6-1.5,10.3-7.5,7.7-13.9c-1-2.6-2.8-5-4.7-7c-5.2-5.6-7.5-12.3-9-20.7c10.4,2,16.6-4.4,23.5-9.5c4.8-3.6,10.4-3.4,15.8-2.2
	c9.2,2.1,18.4,4.5,27.6,7c0.9,0.2,1.8,0.5,2.6,0.9c-0.7-3.2-1.3-6.4-1.7-9.6c-1.4-0.4-2.9-0.8-4.4-1.1c-6.2-1.3-12.4-2.7-18.4-4.5
	c-11.1-3.3-21.1-1.5-29.8,6.2c-4.3,3.8-8.9,5.9-14.8,6c-5.4,0.1-7.7,3.1-7.5,8.5c0.1,1.6,0.4,3.3,0.8,4.9c1.9,7.5,5.1,14.3,10.6,20
	c4.3,4.5,3.4,6.5-2.4,8.5c-2.8,1-5.6,2.9-7.7,5.1c-4.8,5.1-8.8,10.9-13.8,15.8c-8.5,8.5-8.9,9.5-4.6,20.9c0.4,1.1,0.4,3.2-0.3,3.8
	c-6.6,5.6-9,13.5-11.1,21.3c-1.9,6.8-0.2,8.7,6.3,11.9c3.4,1.6,6.5,4,10,5.5c3.3,1.3,6.8,2.3,10.3,2.6c6.8,0.6,13.7,0.4,20.4,1
	c2.6,0.3,5.4,1.5,7.6,3.1c6.3,4.7,9.9,4.8,16.9,1.2c6-3.1,12.2-6.2,18.6-7.9c7.9-2.1,15.2-4.5,21-10.6c2.9-3.1,6.1-3,9.9-0.8
	c2.6,1.5,5.8,2.3,8.8,2.4c6.5,0.1,16.1,7.3,15.8,13.7c-0.6,14.1,8.6,23.7,15.1,34.4c1.4,2.3,2.8,4.2,0.6,5.8c-1.6,1.2-4.3,1-6.5,0.9
	c-0.9,0-1.8-1.4-2.8-2c-3.4-2.3-6.8-1.2-7.4,2.9c-1.2,8.2-5.7,14.8-10.4,21.3c-3.7,5.1-4.1,8.7-0.8,14c2.7,4.3,6.9,5.8,12.7,4.5
	c1.3-0.3,2.7-1.1,3.9-0.9c10.1,1.9,16.4-2.7,21.6-11c4.6-7.4,10.4-14.1,16-20.9c2-2.4,4.6-4.6,7.4-5.9c3.1-1.4,6.7-1.5,10.1-2.2
	c0.9,7.3,6.8,11.2,11.9,15.7c1.1,1,3.1,1.2,4.7,1.2c4.7,0,9.3-0.3,14-0.5c1.8,0,3.6,0.2,5.5,0.2c0.1,0.5,0.2,1.1,0.3,1.6
	c-4.9,2-10,3.5-14.5,6.2c-2.4,1.5-4.7,4.8-5.1,7.6c-0.6,3.7,2.1,6.3,6.2,7.1c3.2,0.6,6.4,1.9,9.5,3c6,2.1,6,2.1,3.6,8
	c-3.1,7.5,0.1,14.3,8.1,15.8c3.7,0.7,8.5,0.8,11.5-1c8.6-5.2,16.8-11.2,24.7-17.4c3.3-2.6,6.3-4.2,10.4-2.7c1.6,0.6,3.1,1.3,4.6,1.8
	c4.3,1.6,7.7-0.6,9.1-4c1.4-3.2,1.9-7.5,0.9-10.8c-1-3.3-5.1-3-8.3-2.2c-2.1,0.6-4.3,0.9-6.3,1.6c-4.3,1.5-7.8,0.3-10.8-2.9
	c-1.8-1.9-4.4-3.7-5.1-6c-1.1-3.6-1.6-7.7-1.1-11.3c0.5-3.7,3.7-5.2,7.7-5.7c3.6-0.5,7.5-2.1,10.3-4.4c7.9-6.5,16.8-7.9,26.7-7.6
	c3.7,0.1,8-1.1,11.2-3c9.1-5.6,17.3-11.7,21.2-22.8c2.9-8.5,4.5-8.6,13.5-6.1c9.5,2.6,13-1.9,14.6-10.1c0.6-3.1-0.9-6.9-2.3-9.9
	c-1.4-3.1-1.2-5.4,0.7-7.8c1-1.3,2.3-2.4,3.3-3.8C393.6,204.1,393.2,202,389.3,199.7z M213.4,273.3c1.3-3.1,2.3-5.4,3.8-8.8
	c1.3,2.9,2.1,4.6,3.2,6.8C218,272,216.2,272.5,213.4,273.3z"/>
</svg>
