<?xml version="1.0" encoding="utf-8"?>
<!-- Generator: Adobe Illustrator 21.0.0, SVG Export Plug-In . SVG Version: 6.00 Build 0)  -->
<svg version="1.1" id="Слой_1" xmlns="http://www.w3.org/2000/svg" xmlns:xlink="http://www.w3.org/1999/xlink" x="0px" y="0px"
	 viewBox="0 0 89.8 89.8" style="enable-background:new 0 0 89.8 89.8;" xml:space="preserve">
<style type="text/css">
	.st0{fill:#4D76A1;}
	.st1{fill-rule:evenodd;clip-rule:evenodd;fill:#FFFFFF;}
</style>
<g>
	<path class="st0" d="M89.8,44.9c0,24.8-20.1,44.9-44.9,44.9S0,69.7,0,44.9C0,20.1,20.1,0,44.9,0S89.8,20.1,89.8,44.9L89.8,44.9z
		 M89.8,44.9"/>
	<path class="st1" d="M43.2,64.6h3.5c0,0,1.1-0.1,1.6-0.7c0.5-0.5,0.5-1.5,0.5-1.5s-0.1-4.7,2.1-5.4c2.2-0.7,4.9,4.6,7.9,6.6
		c2.2,1.5,3.9,1.2,3.9,1.2l7.9-0.1c0,0,4.1-0.3,2.2-3.5c-0.2-0.3-1.1-2.4-5.9-6.8c-4.9-4.6-4.3-3.8,1.7-11.8c3.6-4.8,5.1-7.8,4.6-9
		c-0.4-1.2-3.1-0.9-3.1-0.9l-8.9,0.1c0,0-0.7-0.1-1.1,0.2c-0.5,0.3-0.8,1-0.8,1s-1.4,3.7-3.3,6.9c-3.9,6.7-5.5,7.1-6.2,6.6
		c-1.5-1-1.1-3.9-1.1-6c0-6.5,1-9.2-1.9-9.9c-1-0.2-1.7-0.4-4.1-0.4c-3.2,0-5.8,0-7.4,0.8c-1,0.5-1.8,1.6-1.3,1.7
		c0.6,0.1,1.9,0.4,2.6,1.3c0.9,1.2,0.9,4,0.9,4s0.5,7.6-1.2,8.6c-1.2,0.7-2.8-0.7-6.4-6.8c-1.8-3.1-3.2-6.6-3.2-6.6s-0.3-0.6-0.7-1
		c-0.6-0.4-1.4-0.5-1.4-0.5l-8.4,0.1c0,0-1.3,0-1.7,0.6c-0.4,0.5,0,1.5,0,1.5s6.6,15.4,14.1,23.2C35.4,65,43.2,64.6,43.2,64.6
		L43.2,64.6z M43.2,64.6"/>
</g>
</svg>
