<?xml version="1.0" encoding="utf-8"?>
<!-- Generator: Adobe Illustrator 21.0.0, SVG Export Plug-In . SVG Version: 6.00 Build 0)  -->
<svg version="1.1" id="Слой_1" xmlns="http://www.w3.org/2000/svg" xmlns:xlink="http://www.w3.org/1999/xlink" x="0px" y="0px"
	 viewBox="0 0 233.1 232.1" style="enable-background:new 0 0 233.1 232.1;" xml:space="preserve">
<style type="text/css">
	.st0{fill:#C4302B;}
	.st1{fill:#FFFFFF;}
</style>
<g>
	<path class="st0" d="M116.5,0c64.4,0,116.5,52.2,116.5,116.5c0,64.4-52.2,116.5-116.5,116.5C52.2,233.1,0,180.9,0,116.5
		C0,52.2,52.2,0,116.5,0L116.5,0z M116.5,0"/>
	<path class="st1" d="M113.7,94.7c3.7,0,6.6-1.2,8.7-2.8c2.1-1.7,3.1-4,3.1-6.9V67.3c0-2.6-1.1-4.7-3.2-6.4
		c-2.1-1.7-4.9-2.5-8.3-2.5c-3.7,0-6.6,0.8-8.8,2.3c-2.2,1.6-3.3,3.7-3.3,6.3v17.7c0,2.9,1.1,5.2,3.2,6.9
		C107.3,93.5,110.2,94.7,113.7,94.7L113.7,94.7z M109.9,67.9c0-0.7,0.4-1.2,1-1.6c0.7-0.4,1.6-0.6,2.7-0.6c1.2,0,2.2,0.2,2.9,0.6
		c0.7,0.4,1.1,1,1.1,1.6v16.8c0,0.8-0.4,1.5-1.1,2c-0.7,0.5-1.7,0.7-2.9,0.7c-1.2,0-2.1-0.2-2.8-0.7c-0.6-0.5-1-1.1-1-2V67.9z
		 M138.1,94.7c1.3,0,2.6-0.7,4-1.5c1.4-0.8,2.7-1.9,4-3.3v3.9h6.9V58.4h-6.9v26.9c-0.6,0.8-1.4,1.4-2.1,1.9
		c-0.8,0.5-1.4,0.8-1.9,0.8c-0.6,0-1.1-0.2-1.4-0.6c-0.3-0.4-0.4-1-0.4-1.8V58.4h-6.9V88c0,2.1,0.4,3.7,1.2,4.7
		C135.3,93.8,136.5,94.7,138.1,94.7L138.1,94.7z M158.1,109.3H74.9c-13.2,0-23.9,10.3-23.9,23v19.4c0,12.7,10.7,23,23.9,23h83.2
		c13.2,0,23.9-10.3,23.9-23v-19.4C182.1,119.6,171.3,109.3,158.1,109.3L158.1,109.3z M87.3,129H80v30.5h-7.1V129h-7.4v-5.2h21.8V129
		L87.3,129z M109.3,159.9h-7.7v-3.2c-1.4,1.2-2.9,2.1-4.4,2.7c-1.5,0.6-3,0.9-4.5,0.9c-1.8,0-3.1-0.4-4-1.3
		c-0.9-0.9-1.3-2.1-1.3-3.8v-24H95v22.1c0,0.7,0.2,1.2,0.5,1.5c0.3,0.3,0.9,0.4,1.6,0.4c0.6,0,1.3-0.2,2.1-0.6
		c0.9-0.4,1.7-0.9,2.4-1.5v-21.8h7.7V159.9L109.3,159.9z M138.3,154.4c0,1.9-0.6,3.3-1.8,4.3c-1.2,1-2.9,1.5-5.1,1.5
		c-1.5,0-2.8-0.2-4-0.6c-1.2-0.4-2.3-1-3.2-1.8v2h-7.7v-36.1h7.7v11.6c1-0.8,2.1-1.4,3.2-1.8c1.2-0.4,2.3-0.6,3.5-0.6
		c2.4,0,4.2,0.6,5.5,1.7c1.3,1.1,1.9,2.8,1.9,5V154.4z M167.5,146.3h-14.1v5.2c0,1.4,0.2,2.5,0.7,3c0.5,0.6,1.3,0.8,2.5,0.8
		c1.2,0,2.1-0.2,2.6-0.7c0.5-0.5,0.7-1.5,0.7-3.2v-1.3h7.6v1.4c0,2.8-0.9,5-2.8,6.4c-1.9,1.4-4.6,2.1-8.3,2.1
		c-3.3,0-5.9-0.8-7.8-2.3c-1.9-1.5-2.9-3.6-2.9-6.2v-12.4c0-2.4,1-4.3,3.1-5.9c2.1-1.5,4.8-2.3,8.1-2.3c3.4,0,6,0.7,7.8,2.1
		c1.8,1.4,2.7,3.4,2.7,6V146.3L167.5,146.3z M83.2,94.8h8.7V73.6L102,43.7h-8.8l-5.4,20.4h-0.6l-5.6-20.4h-8.8l10.4,30.8
		C83.2,74.5,83.2,94.8,83.2,94.8L83.2,94.8z M127.3,137.2l-1.6,0.3l-1.6,0.8v16.6c0.6,0.4,1.2,0.8,1.8,0.9l1.8,0.3
		c0.9,0,1.6-0.2,2-0.6c0.4-0.4,0.7-1,0.7-1.8V140c0-0.9-0.3-1.6-0.8-2C129.1,137.5,128.4,137.2,127.3,137.2L127.3,137.2z
		 M127.3,137.2"/>
	<path class="st1" d="M157,136c-1.2,0-2,0.3-2.5,0.8c-0.5,0.5-0.8,1.3-0.8,2.5v2.8h6.5v-2.8c0-1.2-0.3-2-0.8-2.5
		C158.9,136.3,158.1,136,157,136L157,136z M157,136"/>
</g>
</svg>
