<?xml version="1.0" encoding="utf-8"?>
<!-- Generator: Adobe Illustrator 21.0.0, SVG Export Plug-In . SVG Version: 6.00 Build 0)  -->
<svg version="1.1" id="Слой_1" xmlns="http://www.w3.org/2000/svg" xmlns:xlink="http://www.w3.org/1999/xlink" x="0px" y="0px"
	 viewBox="0 0 74.8 67.5" style="enable-background:new 0 0 74.8 67.5;" xml:space="preserve">
<style type="text/css">
	.st0{fill:#6F7484;}
</style>
<g>
	<path class="st0" d="M68.4,67.5C50.6,55.9,40,38.7,40,19.8C40,7.7,45.9,0,55.2,0c8.5,0,14.4,5.9,14.4,14.4c0,8-6.2,13.4-13.7,13.1
		c0.8,11.6,7,22.2,18.8,31.2L68.4,67.5z"/>
</g>
<g>
	<path class="st0" d="M28.4,67.5C10.6,55.9,0,38.7,0,19.8C0,7.7,5.9,0,15.2,0c8.5,0,14.4,5.9,14.4,14.4c0,8-6.2,13.4-13.7,13.1
		c0.8,11.6,7,22.2,18.8,31.2L28.4,67.5z"/>
</g>
</svg>
