<?xml version="1.0" encoding="utf-8"?>
<!-- Generator: Adobe Illustrator 21.0.0, SVG Export Plug-In . SVG Version: 6.00 Build 0)  -->
<svg version="1.1" id="Слой_1" xmlns="http://www.w3.org/2000/svg" xmlns:xlink="http://www.w3.org/1999/xlink" x="0px" y="0px"
	 viewBox="0 0 30.7 43.8" style="enable-background:new 0 0 30.7 43.8;" xml:space="preserve">
<style type="text/css">
	.st0{fill:#4E63B4;}
</style>
<g>
	<path class="st0" d="M26.2,4.5C23.3,1.6,19.4,0,15.3,0c-4.1,0-8,1.6-10.9,4.5c-5.4,5.4-6,15.4-1.4,21.6l12.3,17.8l12.3-17.7
		C32.2,19.9,31.6,9.9,26.2,4.5L26.2,4.5z M15.5,20.8c-3.1,0-5.6-2.5-5.6-5.6c0-3.1,2.5-5.6,5.6-5.6c3.1,0,5.6,2.5,5.6,5.6
		C21.1,18.3,18.6,20.8,15.5,20.8L15.5,20.8z M15.5,20.8"/>
</g>
</svg>
